<svg width="98" height="35" viewBox="0 0 98 35" fill="none" xmlns="http://www.w3.org/2000/svg">
<path fill-rule="evenodd" clip-rule="evenodd" d="M1.61775 -5.2779e-06C0.851288 -5.43927e-06 0.334014 0.783013 0.63474 1.48801L13.6048 31.894C13.9741 32.7598 15.2015 32.7598 15.5708 31.894L28.5408 1.48802C28.8416 0.783018 28.3243 3.44929e-07 27.5578 1.83558e-07L1.61775 -5.2779e-06Z" fill="#5E4135"/>
<path fill-rule="evenodd" clip-rule="evenodd" d="M14.7628 -5.2779e-06C13.9963 -5.43927e-06 13.479 0.783013 13.7798 1.48801L26.7498 31.894C27.1191 32.7598 28.3465 32.7598 28.7158 31.894L41.6859 1.48802C41.9866 0.783018 41.4693 3.44929e-07 40.7029 1.83558e-07L14.7628 -5.2779e-06Z" fill="#B29166"/>
<path d="M87.4577 30.5819H83.5474C83.344 30.5819 83.2422 30.4929 83.2422 30.3149L83.2041 3.70576C83.2041 3.5023 83.3058 3.40057 83.5093 3.40057H87.0381L93.6379 18.7938L93.4472 3.70576C93.4472 3.5023 93.5616 3.40057 93.7905 3.40057H97.6626C97.8152 3.40057 97.8915 3.5023 97.8915 3.70576L97.9297 30.353C97.9297 30.5056 97.8661 30.5819 97.7389 30.5819H94.3055L87.534 16.1997L87.8201 30.2767C87.8201 30.4802 87.6993 30.5819 87.4577 30.5819Z" fill="#5E4135"/>
<path d="M79.618 30.5819H75.1927C75.0656 30.5819 75.002 30.5183 75.002 30.3912L75.0401 3.55316C75.0401 3.45143 75.091 3.40057 75.1927 3.40057H79.5799C79.6816 3.40057 79.7325 3.45143 79.7325 3.55316L79.7706 30.3912C79.7706 30.5183 79.7198 30.5819 79.618 30.5819Z" fill="#5E4135"/>
<path d="M64.6254 30.9634C63.2393 30.9634 61.9613 30.6074 60.7914 29.8952C59.6342 29.1831 58.7059 28.2358 58.0065 27.0531C57.3198 25.8578 56.9764 24.548 56.9764 23.1237V21.3307C56.9764 21.1908 57.04 21.1209 57.1672 21.1209H61.5543C61.6561 21.1209 61.7069 21.1908 61.7069 21.3307V23.1237C61.7069 23.9757 61.9931 24.7133 62.5653 25.3364C63.1375 25.9468 63.8242 26.252 64.6254 26.252C65.4392 26.252 66.1323 25.9404 66.7045 25.3173C67.2767 24.6815 67.5629 23.9503 67.5629 23.1237C67.5629 22.17 66.9397 21.3371 65.6935 20.625C65.4901 20.4978 65.223 20.3452 64.8924 20.1672C64.5745 19.9764 64.193 19.7603 63.7479 19.5186C63.3028 19.277 62.8705 19.0418 62.4508 18.8129C62.0312 18.5713 61.6243 18.3424 61.2301 18.1262C59.8058 17.2869 58.744 16.2378 58.0446 14.9789C57.3579 13.7072 57.0146 12.283 57.0146 10.7062C57.0146 9.25648 57.3706 7.94669 58.0828 6.77678C58.7949 5.61958 59.7232 4.704 60.8677 4.03003C62.0248 3.34334 63.2774 3 64.6254 3C66.0114 3 67.2831 3.34334 68.4403 4.03003C69.5975 4.72943 70.5194 5.65773 71.2061 6.81493C71.9055 7.97212 72.2552 9.2692 72.2552 10.7062V13.9107C72.2552 14.0124 72.2043 14.0633 72.1026 14.0633H67.7154C67.6137 14.0633 67.5629 14.0124 67.5629 13.9107L67.5247 10.7062C67.5247 9.79057 67.2386 9.04666 66.6663 8.47442C66.0941 7.90218 65.4138 7.61606 64.6254 7.61606C63.8242 7.61606 63.1375 7.92126 62.5653 8.53165C61.9931 9.14203 61.7069 9.86687 61.7069 10.7062C61.7069 11.5582 61.885 12.2703 62.241 12.8425C62.6098 13.4148 63.2774 13.9616 64.2439 14.4829C64.3456 14.5338 64.5808 14.661 64.9496 14.8644C65.3184 15.0679 65.7253 15.2968 66.1704 15.5511C66.6282 15.7927 67.0415 16.0153 67.4103 16.2187C67.779 16.4095 68.0016 16.5239 68.0779 16.5621C69.3749 17.2869 70.3986 18.1771 71.1489 19.2325C71.9119 20.288 72.2934 21.5851 72.2934 23.1237C72.2934 24.6116 71.95 25.9468 71.2633 27.1294C70.5639 28.312 69.6356 29.2467 68.4784 29.9334C67.3212 30.6201 66.0369 30.9634 64.6254 30.9634Z" fill="#5E4135"/>
<path d="M40 30.3912L44.845 3.55316C44.8704 3.45143 44.934 3.40057 45.0357 3.40057H50.7009C50.8026 3.40057 50.8662 3.45143 50.8916 3.55316L55.5458 30.3912C55.5585 30.5183 55.5077 30.5819 55.3932 30.5819H51.0633C50.9361 30.5819 50.8662 30.5183 50.8535 30.3912L50.4338 27.53H45.112L44.6924 30.3912C44.6796 30.5183 44.6161 30.5819 44.5016 30.5819H40.1526C40.0509 30.5819 40 30.5183 40 30.3912ZM47.6489 12.3847L45.8941 23.3526H49.6518L48.0495 12.3847L47.8206 10.9351L47.6489 12.3847Z" fill="#5E4135"/>
</svg>
