<svg width="99" height="35" viewBox="0 0 99 35" fill="none" xmlns="http://www.w3.org/2000/svg">
<path fill-rule="evenodd" clip-rule="evenodd" d="M1.91773 -5.2779e-06C1.15128 -5.43927e-06 0.634002 0.783013 0.934728 1.48801L13.9048 31.894C14.2741 32.7598 15.5014 32.7598 15.8708 31.894L28.8408 1.48802C29.1416 0.783018 28.6243 3.44929e-07 27.8578 1.83558e-07L1.91773 -5.2779e-06Z" fill="#F7F4EF"/>
<path fill-rule="evenodd" clip-rule="evenodd" d="M15.0628 -5.2779e-06C14.2963 -5.43927e-06 13.779 0.783013 14.0798 1.48801L27.0498 31.894C27.4191 32.7598 28.6465 32.7598 29.0158 31.894L41.9859 1.48802C42.2866 0.783018 41.7693 3.44929e-07 41.0029 1.83558e-07L15.0628 -5.2779e-06Z" fill="#B29166"/>
<path d="M87.7577 30.5819H83.8474C83.6439 30.5819 83.5422 30.4929 83.5422 30.3149L83.5041 3.70576C83.5041 3.5023 83.6058 3.40057 83.8092 3.40057H87.3381L93.9379 18.7938L93.7471 3.70576C93.7471 3.5023 93.8616 3.40057 94.0905 3.40057H97.9626C98.1152 3.40057 98.1915 3.5023 98.1915 3.70576L98.2297 30.353C98.2297 30.5056 98.1661 30.5819 98.0389 30.5819H94.6055L87.834 16.1997L88.1201 30.2767C88.1201 30.4802 87.9993 30.5819 87.7577 30.5819Z" fill="#F7F4EF"/>
<path d="M79.918 30.5819H75.4927C75.3655 30.5819 75.302 30.5183 75.302 30.3912L75.3401 3.55316C75.3401 3.45143 75.391 3.40057 75.4927 3.40057H79.8799C79.9816 3.40057 80.0325 3.45143 80.0325 3.55316L80.0706 30.3912C80.0706 30.5183 80.0198 30.5819 79.918 30.5819Z" fill="#F7F4EF"/>
<path d="M64.9254 30.9634C63.5393 30.9634 62.2613 30.6074 61.0913 29.8952C59.9342 29.1831 59.0059 28.2358 58.3065 27.0531C57.6198 25.8578 57.2764 24.548 57.2764 23.1237V21.3307C57.2764 21.1908 57.34 21.1209 57.4672 21.1209H61.8543C61.9561 21.1209 62.0069 21.1908 62.0069 21.3307V23.1237C62.0069 23.9757 62.2931 24.7133 62.8653 25.3364C63.4375 25.9468 64.1242 26.252 64.9254 26.252C65.7392 26.252 66.4322 25.9404 67.0045 25.3173C67.5767 24.6815 67.8628 23.9503 67.8628 23.1237C67.8628 22.17 67.2397 21.3371 65.9935 20.625C65.7901 20.4978 65.523 20.3452 65.1924 20.1672C64.8745 19.9764 64.493 19.7603 64.0479 19.5186C63.6028 19.277 63.1705 19.0418 62.7508 18.8129C62.3312 18.5713 61.9243 18.3424 61.5301 18.1262C60.1058 17.2869 59.044 16.2378 58.3446 14.9789C57.6579 13.7072 57.3146 12.283 57.3146 10.7062C57.3146 9.25648 57.6706 7.94669 58.3827 6.77678C59.0949 5.61958 60.0232 4.704 61.1676 4.03003C62.3248 3.34334 63.5774 3 64.9254 3C66.3114 3 67.5831 3.34334 68.7403 4.03003C69.8975 4.72943 70.8194 5.65773 71.5061 6.81493C72.2055 7.97212 72.5552 9.2692 72.5552 10.7062V13.9107C72.5552 14.0124 72.5043 14.0633 72.4026 14.0633H68.0154C67.9137 14.0633 67.8628 14.0124 67.8628 13.9107L67.8247 10.7062C67.8247 9.79057 67.5386 9.04666 66.9663 8.47442C66.3941 7.90218 65.7138 7.61606 64.9254 7.61606C64.1242 7.61606 63.4375 7.92126 62.8653 8.53165C62.2931 9.14203 62.0069 9.86687 62.0069 10.7062C62.0069 11.5582 62.185 12.2703 62.541 12.8425C62.9098 13.4148 63.5774 13.9616 64.5439 14.4829C64.6456 14.5338 64.8808 14.661 65.2496 14.8644C65.6184 15.0679 66.0253 15.2968 66.4704 15.5511C66.9282 15.7927 67.3415 16.0153 67.7102 16.2187C68.079 16.4095 68.3016 16.5239 68.3779 16.5621C69.6749 17.2869 70.6986 18.1771 71.4489 19.2325C72.2119 20.288 72.5934 21.5851 72.5934 23.1237C72.5934 24.6116 72.25 25.9468 71.5633 27.1294C70.8639 28.312 69.9356 29.2467 68.7784 29.9334C67.6212 30.6201 66.3369 30.9634 64.9254 30.9634Z" fill="#F7F4EF"/>
<path d="M40.3 30.3912L45.1449 3.55316C45.1704 3.45143 45.234 3.40057 45.3357 3.40057H51.0009C51.1026 3.40057 51.1662 3.45143 51.1916 3.55316L55.8458 30.3912C55.8585 30.5183 55.8077 30.5819 55.6932 30.5819H51.3633C51.2361 30.5819 51.1662 30.5183 51.1535 30.3912L50.7338 27.53H45.412L44.9924 30.3912C44.9796 30.5183 44.9161 30.5819 44.8016 30.5819H40.4526C40.3509 30.5819 40.3 30.5183 40.3 30.3912ZM47.9489 12.3847L46.1941 23.3526H49.9518L48.3495 12.3847L48.1206 10.9351L47.9489 12.3847Z" fill="#F7F4EF"/>
</svg>
